<svg xmlns="http://www.w3.org/2000/svg" xmlns:ev="http://www.w3.org/2001/xml-events" xmlns:xlink="http://www.w3.org/1999/xlink" baseProfile="full" height="200" version="1.1" width="200"><defs><style type="text/css"><![CDATA[.axis {font-weight: bold}.tree, .axis {font-size: 14px; text-anchor:middle}.edge {stroke: black; fill: none}.node > .sym {fill: black; stroke: none}.tree text {dominant-baseline: middle}.tree .lab.lft {text-anchor: end}.tree .lab.rgt {text-anchor: start}.mut {fill: red; font-style: italic}]]></style></defs><g class="tree t0"><g class="node n10 p0 root" transform="translate(113.661 30.0)"><g class="a10 i2 leaf node n4 p0 sample" transform="translate(50.625 140.0)"><path class="edge" d="M 0 0 V -140.0 H -50.625"/><circle class="sym" cx="0" cy="0" r="3"/><text class="lab" transform="translate(0 12)">4</text></g><g class="a10 node n9 p0" transform="translate(-50.625 75.6042)"><g class="a9 i0 leaf node n0 p0 sample" transform="translate(-27.3214 64.3958)"><path class="edge" d="M 0 0 V -64.3958 H 27.3214"/><circle class="sym" cx="0" cy="0" r="3"/><text class="lab" transform="translate(0 12)">0</text></g><g class="a9 node n8 p0" transform="translate(27.3214 21.7404)"><g class="a8 i0 leaf node n1 p0 sample" transform="translate(-28.9286 42.6553)"><path class="edge" d="M 0 0 V -42.6553 H 28.9286"/><circle class="sym" cx="0" cy="0" r="3"/><text class="lab" transform="translate(0 12)">1</text></g><g class="a8 node n7 p0" transform="translate(28.9286 7.42583)"><g class="a7 i2 leaf node n5 p0 sample" transform="translate(19.2857 35.2295)"><path class="edge" d="M 0 0 V -35.2295 H -19.2857"/><circle class="sym" cx="0" cy="0" r="3"/><text class="lab" transform="translate(0 12)">5</text></g><g class="a7 node n6 p0" transform="translate(-19.2857 22.6531)"><g class="a6 i1 leaf node n2 p0 sample" transform="translate(-12.8571 12.5764)"><path class="edge" d="M 0 0 V -12.5764 H 12.8571"/><circle class="sym" cx="0" cy="0" r="3"/><text class="lab" transform="translate(0 12)">2</text></g><g class="a6 i1 leaf node n3 p0 sample" transform="translate(12.8571 12.5764)"><path class="edge" d="M 0 0 V -12.5764 H -12.8571"/><circle class="sym" cx="0" cy="0" r="3"/><text class="lab" transform="translate(0 12)">3</text></g><path class="edge" d="M 0 0 V -22.6531 H 19.2857"/><circle class="sym" cx="0" cy="0" r="3"/><text class="lab lft" transform="translate(-3 -6)">6</text></g><path class="edge" d="M 0 0 V -7.42583 H -28.9286"/><circle class="sym" cx="0" cy="0" r="3"/><text class="lab rgt" transform="translate(3 -6)">7</text></g><path class="edge" d="M 0 0 V -21.7404 H -27.3214"/><circle class="sym" cx="0" cy="0" r="3"/><text class="lab rgt" transform="translate(3 -6)">8</text></g><path class="edge" d="M 0 0 V -75.6042 H 50.625"/><circle class="sym" cx="0" cy="0" r="3"/><text class="lab lft" transform="translate(-3 -6)">9</text></g><circle class="sym" cx="0" cy="0" r="3"/><text class="lab" transform="translate(0 -10)">10</text></g></g></svg>